<mxfile host="app.diagrams.net" modified="2023-07-23T15:44:41.077Z" agent="Mozilla/5.0 (Windows NT 10.0; Win64; x64) AppleWebKit/537.36 (KHTML, like Gecko) Chrome/114.0.0.0 Safari/537.36" etag="psbzgc8HKV8qwTqruoMT" version="21.6.5" type="device" pages="3">
  <diagram id="3St7vKCA7k5Q7cXKVE9w" name="title2.date">
    <mxGraphModel dx="1030" dy="548" grid="1" gridSize="10" guides="1" tooltips="1" connect="1" arrows="1" fold="1" page="1" pageScale="1" pageWidth="850" pageHeight="1100" math="0" shadow="0">
      <root>
        <mxCell id="0" />
        <mxCell id="1" parent="0" />
        <mxCell id="ArWtyW2IciBvNNYjiJ1b-1" value="Date" style="swimlane;fontStyle=1;align=center;verticalAlign=top;childLayout=stackLayout;horizontal=1;startSize=26;horizontalStack=0;resizeParent=1;resizeParentMax=0;resizeLast=0;collapsible=1;marginBottom=0;whiteSpace=wrap;html=1;" parent="1" vertex="1">
          <mxGeometry x="587" y="79" width="160" height="111" as="geometry" />
        </mxCell>
        <mxCell id="ArWtyW2IciBvNNYjiJ1b-2" value="- day: int" style="text;strokeColor=none;fillColor=none;align=left;verticalAlign=top;spacingLeft=4;spacingRight=4;overflow=hidden;rotatable=0;points=[[0,0.5],[1,0.5]];portConstraint=eastwest;whiteSpace=wrap;html=1;" parent="ArWtyW2IciBvNNYjiJ1b-1" vertex="1">
          <mxGeometry y="26" width="160" height="17" as="geometry" />
        </mxCell>
        <mxCell id="ArWtyW2IciBvNNYjiJ1b-5" value="- month: int" style="text;strokeColor=none;fillColor=none;align=left;verticalAlign=top;spacingLeft=4;spacingRight=4;overflow=hidden;rotatable=0;points=[[0,0.5],[1,0.5]];portConstraint=eastwest;whiteSpace=wrap;html=1;" parent="ArWtyW2IciBvNNYjiJ1b-1" vertex="1">
          <mxGeometry y="43" width="160" height="17" as="geometry" />
        </mxCell>
        <mxCell id="pM0ZPgJzqFCbjPoH_CQ4-1" value="- month: year" style="text;strokeColor=none;fillColor=none;align=left;verticalAlign=top;spacingLeft=4;spacingRight=4;overflow=hidden;rotatable=0;points=[[0,0.5],[1,0.5]];portConstraint=eastwest;whiteSpace=wrap;html=1;" parent="ArWtyW2IciBvNNYjiJ1b-1" vertex="1">
          <mxGeometry y="60" width="160" height="17" as="geometry" />
        </mxCell>
        <mxCell id="ArWtyW2IciBvNNYjiJ1b-3" value="" style="line;strokeWidth=1;fillColor=none;align=left;verticalAlign=middle;spacingTop=-1;spacingLeft=3;spacingRight=3;rotatable=0;labelPosition=right;points=[];portConstraint=eastwest;strokeColor=inherit;" parent="ArWtyW2IciBvNNYjiJ1b-1" vertex="1">
          <mxGeometry y="77" width="160" height="8" as="geometry" />
        </mxCell>
        <mxCell id="ArWtyW2IciBvNNYjiJ1b-4" value="+ getters &amp;amp; setters" style="text;strokeColor=none;fillColor=none;align=left;verticalAlign=top;spacingLeft=4;spacingRight=4;overflow=hidden;rotatable=0;points=[[0,0.5],[1,0.5]];portConstraint=eastwest;whiteSpace=wrap;html=1;" parent="ArWtyW2IciBvNNYjiJ1b-1" vertex="1">
          <mxGeometry y="85" width="160" height="26" as="geometry" />
        </mxCell>
        <mxCell id="km_MRGvdGCtHwzmnUg8V-19" style="edgeStyle=orthogonalEdgeStyle;rounded=0;orthogonalLoop=1;jettySize=auto;html=1;entryX=0;entryY=0.5;entryDx=0;entryDy=0;endArrow=open;endFill=0;dashed=1;dashPattern=1 1;" edge="1" parent="1" source="2ZdTjdF8TuDcHGae7Drb-3" target="ArWtyW2IciBvNNYjiJ1b-5">
          <mxGeometry relative="1" as="geometry" />
        </mxCell>
        <mxCell id="2ZdTjdF8TuDcHGae7Drb-3" value="DateFormatter" style="swimlane;fontStyle=1;align=center;verticalAlign=top;childLayout=stackLayout;horizontal=1;startSize=26;horizontalStack=0;resizeParent=1;resizeParentMax=0;resizeLast=0;collapsible=1;marginBottom=0;whiteSpace=wrap;html=1;" parent="1" vertex="1">
          <mxGeometry x="295" y="60.5" width="220" height="140" as="geometry" />
        </mxCell>
        <mxCell id="2ZdTjdF8TuDcHGae7Drb-4" value="- date: Date" style="text;strokeColor=none;fillColor=none;align=left;verticalAlign=top;spacingLeft=4;spacingRight=4;overflow=hidden;rotatable=0;points=[[0,0.5],[1,0.5]];portConstraint=eastwest;whiteSpace=wrap;html=1;" parent="2ZdTjdF8TuDcHGae7Drb-3" vertex="1">
          <mxGeometry y="26" width="220" height="17" as="geometry" />
        </mxCell>
        <mxCell id="2ZdTjdF8TuDcHGae7Drb-7" value="" style="line;strokeWidth=1;fillColor=none;align=left;verticalAlign=middle;spacingTop=-1;spacingLeft=3;spacingRight=3;rotatable=0;labelPosition=right;points=[];portConstraint=eastwest;strokeColor=inherit;" parent="2ZdTjdF8TuDcHGae7Drb-3" vertex="1">
          <mxGeometry y="43" width="220" height="8" as="geometry" />
        </mxCell>
        <mxCell id="2ZdTjdF8TuDcHGae7Drb-8" value="+ DateFormatter(String formattedDate)" style="text;strokeColor=none;fillColor=none;align=left;verticalAlign=top;spacingLeft=4;spacingRight=4;overflow=hidden;rotatable=0;points=[[0,0.5],[1,0.5]];portConstraint=eastwest;whiteSpace=wrap;html=1;" parent="2ZdTjdF8TuDcHGae7Drb-3" vertex="1">
          <mxGeometry y="51" width="220" height="19" as="geometry" />
        </mxCell>
        <mxCell id="2ZdTjdF8TuDcHGae7Drb-9" value="+ getDate(): Date" style="text;strokeColor=none;fillColor=none;align=left;verticalAlign=top;spacingLeft=4;spacingRight=4;overflow=hidden;rotatable=0;points=[[0,0.5],[1,0.5]];portConstraint=eastwest;whiteSpace=wrap;html=1;" parent="2ZdTjdF8TuDcHGae7Drb-3" vertex="1">
          <mxGeometry y="70" width="220" height="20" as="geometry" />
        </mxCell>
        <mxCell id="2ZdTjdF8TuDcHGae7Drb-10" value="+ addDays(int days): void&amp;nbsp;" style="text;strokeColor=none;fillColor=none;align=left;verticalAlign=top;spacingLeft=4;spacingRight=4;overflow=hidden;rotatable=0;points=[[0,0.5],[1,0.5]];portConstraint=eastwest;whiteSpace=wrap;html=1;" parent="2ZdTjdF8TuDcHGae7Drb-3" vertex="1">
          <mxGeometry y="90" width="220" height="20" as="geometry" />
        </mxCell>
        <mxCell id="km_MRGvdGCtHwzmnUg8V-1" value="+ toString(): String&amp;nbsp;" style="text;strokeColor=none;fillColor=none;align=left;verticalAlign=top;spacingLeft=4;spacingRight=4;overflow=hidden;rotatable=0;points=[[0,0.5],[1,0.5]];portConstraint=eastwest;whiteSpace=wrap;html=1;" vertex="1" parent="2ZdTjdF8TuDcHGae7Drb-3">
          <mxGeometry y="110" width="220" height="30" as="geometry" />
        </mxCell>
        <mxCell id="2ZdTjdF8TuDcHGae7Drb-17" style="edgeStyle=orthogonalEdgeStyle;rounded=0;orthogonalLoop=1;jettySize=auto;html=1;entryX=0.476;entryY=1.018;entryDx=0;entryDy=0;entryPerimeter=0;dashed=1;dashPattern=1 1;endArrow=block;endFill=0;exitX=0.5;exitY=0;exitDx=0;exitDy=0;" parent="1" source="2ZdTjdF8TuDcHGae7Drb-11" target="km_MRGvdGCtHwzmnUg8V-1" edge="1">
          <mxGeometry relative="1" as="geometry" />
        </mxCell>
        <mxCell id="2ZdTjdF8TuDcHGae7Drb-18" value="extends" style="edgeLabel;html=1;align=center;verticalAlign=middle;resizable=0;points=[];" parent="2ZdTjdF8TuDcHGae7Drb-17" vertex="1" connectable="0">
          <mxGeometry x="0.0659" y="-1" relative="1" as="geometry">
            <mxPoint x="20" y="3" as="offset" />
          </mxGeometry>
        </mxCell>
        <mxCell id="2ZdTjdF8TuDcHGae7Drb-11" value="DetailedDateFormatter" style="swimlane;fontStyle=1;align=center;verticalAlign=top;childLayout=stackLayout;horizontal=1;startSize=26;horizontalStack=0;resizeParent=1;resizeParentMax=0;resizeLast=0;collapsible=1;marginBottom=0;whiteSpace=wrap;html=1;" parent="1" vertex="1">
          <mxGeometry x="270" y="240" width="270" height="83" as="geometry" />
        </mxCell>
        <mxCell id="2ZdTjdF8TuDcHGae7Drb-13" value="" style="line;strokeWidth=1;fillColor=none;align=left;verticalAlign=middle;spacingTop=-1;spacingLeft=3;spacingRight=3;rotatable=0;labelPosition=right;points=[];portConstraint=eastwest;strokeColor=inherit;" parent="2ZdTjdF8TuDcHGae7Drb-11" vertex="1">
          <mxGeometry y="26" width="270" height="8" as="geometry" />
        </mxCell>
        <mxCell id="2ZdTjdF8TuDcHGae7Drb-14" value="+ DetailedDateFormatter(String formattedDate)" style="text;strokeColor=none;fillColor=none;align=left;verticalAlign=top;spacingLeft=4;spacingRight=4;overflow=hidden;rotatable=0;points=[[0,0.5],[1,0.5]];portConstraint=eastwest;whiteSpace=wrap;html=1;" parent="2ZdTjdF8TuDcHGae7Drb-11" vertex="1">
          <mxGeometry y="34" width="270" height="19" as="geometry" />
        </mxCell>
        <mxCell id="2ZdTjdF8TuDcHGae7Drb-16" value="+ toString(): String&amp;nbsp;" style="text;strokeColor=none;fillColor=none;align=left;verticalAlign=top;spacingLeft=4;spacingRight=4;overflow=hidden;rotatable=0;points=[[0,0.5],[1,0.5]];portConstraint=eastwest;whiteSpace=wrap;html=1;" parent="2ZdTjdF8TuDcHGae7Drb-11" vertex="1">
          <mxGeometry y="53" width="270" height="30" as="geometry" />
        </mxCell>
        <mxCell id="km_MRGvdGCtHwzmnUg8V-6" style="edgeStyle=orthogonalEdgeStyle;rounded=0;orthogonalLoop=1;jettySize=auto;html=1;entryX=0.498;entryY=1.011;entryDx=0;entryDy=0;entryPerimeter=0;dashed=1;dashPattern=1 1;endArrow=block;endFill=0;exitX=0.5;exitY=0;exitDx=0;exitDy=0;" edge="1" parent="1" source="km_MRGvdGCtHwzmnUg8V-10" target="2ZdTjdF8TuDcHGae7Drb-16">
          <mxGeometry relative="1" as="geometry">
            <mxPoint x="414" y="363" as="sourcePoint" />
            <mxPoint x="413.76" y="323" as="targetPoint" />
          </mxGeometry>
        </mxCell>
        <mxCell id="km_MRGvdGCtHwzmnUg8V-7" value="extends" style="edgeLabel;html=1;align=center;verticalAlign=middle;resizable=0;points=[];" vertex="1" connectable="0" parent="km_MRGvdGCtHwzmnUg8V-6">
          <mxGeometry x="0.0659" y="-1" relative="1" as="geometry">
            <mxPoint x="20" y="3" as="offset" />
          </mxGeometry>
        </mxCell>
        <mxCell id="km_MRGvdGCtHwzmnUg8V-10" value="DateFormatterWithHour" style="swimlane;fontStyle=1;align=center;verticalAlign=top;childLayout=stackLayout;horizontal=1;startSize=26;horizontalStack=0;resizeParent=1;resizeParentMax=0;resizeLast=0;collapsible=1;marginBottom=0;whiteSpace=wrap;html=1;" vertex="1" parent="1">
          <mxGeometry x="185" y="360" width="440" height="134" as="geometry" />
        </mxCell>
        <mxCell id="km_MRGvdGCtHwzmnUg8V-11" value="- hour: int" style="text;strokeColor=none;fillColor=none;align=left;verticalAlign=top;spacingLeft=4;spacingRight=4;overflow=hidden;rotatable=0;points=[[0,0.5],[1,0.5]];portConstraint=eastwest;whiteSpace=wrap;html=1;" vertex="1" parent="km_MRGvdGCtHwzmnUg8V-10">
          <mxGeometry y="26" width="440" height="17" as="geometry" />
        </mxCell>
        <mxCell id="km_MRGvdGCtHwzmnUg8V-17" value="- minute: int" style="text;strokeColor=none;fillColor=none;align=left;verticalAlign=top;spacingLeft=4;spacingRight=4;overflow=hidden;rotatable=0;points=[[0,0.5],[1,0.5]];portConstraint=eastwest;whiteSpace=wrap;html=1;" vertex="1" parent="km_MRGvdGCtHwzmnUg8V-10">
          <mxGeometry y="43" width="440" height="17" as="geometry" />
        </mxCell>
        <mxCell id="km_MRGvdGCtHwzmnUg8V-18" value="- second: int" style="text;strokeColor=none;fillColor=none;align=left;verticalAlign=top;spacingLeft=4;spacingRight=4;overflow=hidden;rotatable=0;points=[[0,0.5],[1,0.5]];portConstraint=eastwest;whiteSpace=wrap;html=1;" vertex="1" parent="km_MRGvdGCtHwzmnUg8V-10">
          <mxGeometry y="60" width="440" height="17" as="geometry" />
        </mxCell>
        <mxCell id="km_MRGvdGCtHwzmnUg8V-12" value="" style="line;strokeWidth=1;fillColor=none;align=left;verticalAlign=middle;spacingTop=-1;spacingLeft=3;spacingRight=3;rotatable=0;labelPosition=right;points=[];portConstraint=eastwest;strokeColor=inherit;" vertex="1" parent="km_MRGvdGCtHwzmnUg8V-10">
          <mxGeometry y="77" width="440" height="8" as="geometry" />
        </mxCell>
        <mxCell id="km_MRGvdGCtHwzmnUg8V-13" value="+ DateFormatterWithHour(String formattedDate, int hour, int minute, int second)" style="text;strokeColor=none;fillColor=none;align=left;verticalAlign=top;spacingLeft=4;spacingRight=4;overflow=hidden;rotatable=0;points=[[0,0.5],[1,0.5]];portConstraint=eastwest;whiteSpace=wrap;html=1;" vertex="1" parent="km_MRGvdGCtHwzmnUg8V-10">
          <mxGeometry y="85" width="440" height="19" as="geometry" />
        </mxCell>
        <mxCell id="km_MRGvdGCtHwzmnUg8V-16" value="+ toString(): String&amp;nbsp;" style="text;strokeColor=none;fillColor=none;align=left;verticalAlign=top;spacingLeft=4;spacingRight=4;overflow=hidden;rotatable=0;points=[[0,0.5],[1,0.5]];portConstraint=eastwest;whiteSpace=wrap;html=1;" vertex="1" parent="km_MRGvdGCtHwzmnUg8V-10">
          <mxGeometry y="104" width="440" height="30" as="geometry" />
        </mxCell>
      </root>
    </mxGraphModel>
  </diagram>
  <diagram name="title8.department" id="872qMeDaOOM6Bme9XBFL">
    <mxGraphModel dx="1184" dy="630" grid="1" gridSize="10" guides="1" tooltips="1" connect="1" arrows="1" fold="1" page="1" pageScale="1" pageWidth="850" pageHeight="1100" math="0" shadow="0">
      <root>
        <mxCell id="0" />
        <mxCell id="1" parent="0" />
        <mxCell id="LVVLpY_JYKPzYzUHeONT-1" value="department" style="shape=folder;fontStyle=1;spacingTop=10;tabWidth=40;tabHeight=14;tabPosition=left;html=1;whiteSpace=wrap;fillColor=#fff2cc;strokeColor=#d6b656;" parent="1" vertex="1">
          <mxGeometry x="10" y="10" width="70" height="50" as="geometry" />
        </mxCell>
        <mxCell id="LVVLpY_JYKPzYzUHeONT-8" value="&lt;p style=&quot;margin: 4px 0px 0px; text-align: center; line-height: 80%;&quot;&gt;&lt;font style=&quot;font-size: 9px;&quot;&gt;«interface»&lt;/font&gt;&lt;b&gt;&lt;br&gt;&lt;/b&gt;&lt;/p&gt;&lt;p style=&quot;margin: 4px 0px 0px; text-align: center; line-height: 80%;&quot;&gt;&lt;b&gt;DepartmentService&lt;/b&gt;&lt;/p&gt;&lt;hr size=&quot;1&quot;&gt;&lt;div style=&quot;height:2px;&quot;&gt;&amp;nbsp;+ finAll(): List&amp;lt;DepartmentDto&amp;gt;&lt;/div&gt;" style="verticalAlign=top;align=left;overflow=fill;fontSize=12;fontFamily=Helvetica;html=1;whiteSpace=wrap;" parent="1" vertex="1">
          <mxGeometry x="20" y="90" width="180" height="60" as="geometry" />
        </mxCell>
        <mxCell id="LVVLpY_JYKPzYzUHeONT-10" style="edgeStyle=orthogonalEdgeStyle;rounded=0;orthogonalLoop=1;jettySize=auto;html=1;entryX=0.5;entryY=1;entryDx=0;entryDy=0;endArrow=block;endFill=0;dashed=1;dashPattern=1 1;exitX=0.5;exitY=0;exitDx=0;exitDy=0;" parent="1" source="LVVLpY_JYKPzYzUHeONT-9" target="LVVLpY_JYKPzYzUHeONT-8" edge="1">
          <mxGeometry relative="1" as="geometry">
            <Array as="points">
              <mxPoint x="110" y="174" />
              <mxPoint x="110" y="174" />
            </Array>
          </mxGeometry>
        </mxCell>
        <mxCell id="LVVLpY_JYKPzYzUHeONT-11" value="implements" style="edgeLabel;html=1;align=center;verticalAlign=middle;resizable=0;points=[];fontSize=9;" parent="LVVLpY_JYKPzYzUHeONT-10" vertex="1" connectable="0">
          <mxGeometry x="-0.093" relative="1" as="geometry">
            <mxPoint x="24" y="1" as="offset" />
          </mxGeometry>
        </mxCell>
        <mxCell id="sWgnHZlghvhyXd7LkZwI-2" style="edgeStyle=orthogonalEdgeStyle;rounded=0;orthogonalLoop=1;jettySize=auto;html=1;entryX=0;entryY=0.5;entryDx=0;entryDy=0;dashed=1;dashPattern=1 1;endArrow=open;endFill=0;" parent="1" source="LVVLpY_JYKPzYzUHeONT-9" target="sWgnHZlghvhyXd7LkZwI-1" edge="1">
          <mxGeometry relative="1" as="geometry" />
        </mxCell>
        <mxCell id="LVVLpY_JYKPzYzUHeONT-9" value="&lt;p style=&quot;margin: 4px 0px 0px; text-align: center; line-height: 80%;&quot;&gt;&lt;b style=&quot;background-color: initial;&quot;&gt;DepartmentServiceImpl&lt;/b&gt;&lt;br&gt;&lt;/p&gt;&lt;hr size=&quot;1&quot;&gt;&lt;div style=&quot;height:2px;&quot;&gt;&lt;br&gt;&lt;/div&gt;" style="verticalAlign=top;align=left;overflow=fill;fontSize=12;fontFamily=Helvetica;html=1;whiteSpace=wrap;" parent="1" vertex="1">
          <mxGeometry x="20" y="174" width="180" height="30" as="geometry" />
        </mxCell>
        <mxCell id="sWgnHZlghvhyXd7LkZwI-1" value="&lt;p style=&quot;margin: 4px 0px 0px; text-align: center; line-height: 80%;&quot;&gt;&lt;font style=&quot;font-size: 9px;&quot;&gt;«interface»&lt;/font&gt;&lt;b&gt;&lt;br&gt;&lt;/b&gt;&lt;/p&gt;&lt;p style=&quot;margin: 4px 0px 0px; text-align: center; line-height: 80%;&quot;&gt;&lt;b&gt;DepartmentFacade&lt;/b&gt;&lt;/p&gt;&lt;hr size=&quot;1&quot;&gt;&lt;div style=&quot;height:2px;&quot;&gt;&amp;nbsp;+ finAll(): List&amp;lt;DepartmentDto&amp;gt;&lt;/div&gt;" style="verticalAlign=top;align=left;overflow=fill;fontSize=12;fontFamily=Helvetica;html=1;whiteSpace=wrap;" parent="1" vertex="1">
          <mxGeometry x="260" y="159" width="180" height="60" as="geometry" />
        </mxCell>
        <mxCell id="sWgnHZlghvhyXd7LkZwI-3" value="&lt;p style=&quot;margin: 4px 0px 0px; text-align: center; line-height: 80%;&quot;&gt;&lt;b style=&quot;background-color: initial;&quot;&gt;DepartmentFacadeDatabase&lt;/b&gt;&lt;br&gt;&lt;/p&gt;&lt;hr size=&quot;1&quot;&gt;&lt;div style=&quot;height:2px;&quot;&gt;&lt;br&gt;&lt;/div&gt;" style="verticalAlign=top;align=left;overflow=fill;fontSize=12;fontFamily=Helvetica;html=1;whiteSpace=wrap;" parent="1" vertex="1">
          <mxGeometry x="30" y="250" width="180" height="30" as="geometry" />
        </mxCell>
        <mxCell id="sWgnHZlghvhyXd7LkZwI-4" value="&lt;p style=&quot;margin: 4px 0px 0px; text-align: center; line-height: 80%;&quot;&gt;&lt;b style=&quot;background-color: initial;&quot;&gt;DepartmentFacadeTCP&lt;/b&gt;&lt;br&gt;&lt;/p&gt;&lt;hr size=&quot;1&quot;&gt;&lt;div style=&quot;height:2px;&quot;&gt;&lt;br&gt;&lt;/div&gt;" style="verticalAlign=top;align=left;overflow=fill;fontSize=12;fontFamily=Helvetica;html=1;whiteSpace=wrap;" parent="1" vertex="1">
          <mxGeometry x="280" y="250" width="140" height="30" as="geometry" />
        </mxCell>
        <mxCell id="sWgnHZlghvhyXd7LkZwI-5" value="&lt;p style=&quot;margin: 4px 0px 0px; text-align: center; line-height: 80%;&quot;&gt;&lt;b style=&quot;background-color: initial;&quot;&gt;DepartmentFacadeRMI&lt;/b&gt;&lt;br&gt;&lt;/p&gt;&lt;hr size=&quot;1&quot;&gt;&lt;div style=&quot;height:2px;&quot;&gt;&lt;br&gt;&lt;/div&gt;" style="verticalAlign=top;align=left;overflow=fill;fontSize=12;fontFamily=Helvetica;html=1;whiteSpace=wrap;" parent="1" vertex="1">
          <mxGeometry x="555" y="250" width="140" height="30" as="geometry" />
        </mxCell>
        <mxCell id="sWgnHZlghvhyXd7LkZwI-9" value="" style="endArrow=block;html=1;rounded=0;entryX=0.25;entryY=1;entryDx=0;entryDy=0;exitX=0.5;exitY=0;exitDx=0;exitDy=0;endFill=0;dashed=1;dashPattern=1 1;" parent="1" source="sWgnHZlghvhyXd7LkZwI-3" target="sWgnHZlghvhyXd7LkZwI-1" edge="1">
          <mxGeometry width="50" height="50" relative="1" as="geometry">
            <mxPoint x="100" y="350" as="sourcePoint" />
            <mxPoint x="150" y="300" as="targetPoint" />
            <Array as="points">
              <mxPoint x="120" y="240" />
              <mxPoint x="305" y="240" />
            </Array>
          </mxGeometry>
        </mxCell>
        <mxCell id="sWgnHZlghvhyXd7LkZwI-10" value="implements" style="edgeLabel;html=1;align=center;verticalAlign=middle;resizable=0;points=[];fontSize=9;" parent="sWgnHZlghvhyXd7LkZwI-9" vertex="1" connectable="0">
          <mxGeometry x="-0.207" y="-1" relative="1" as="geometry">
            <mxPoint x="4" y="-7" as="offset" />
          </mxGeometry>
        </mxCell>
        <mxCell id="sWgnHZlghvhyXd7LkZwI-11" value="" style="endArrow=block;html=1;rounded=0;entryX=0.5;entryY=1;entryDx=0;entryDy=0;exitX=0.5;exitY=0;exitDx=0;exitDy=0;endFill=0;dashed=1;dashPattern=1 1;" parent="1" source="sWgnHZlghvhyXd7LkZwI-4" target="sWgnHZlghvhyXd7LkZwI-1" edge="1">
          <mxGeometry width="50" height="50" relative="1" as="geometry">
            <mxPoint x="200" y="260" as="sourcePoint" />
            <mxPoint x="315" y="229" as="targetPoint" />
            <Array as="points" />
          </mxGeometry>
        </mxCell>
        <mxCell id="sWgnHZlghvhyXd7LkZwI-12" value="implements" style="edgeLabel;html=1;align=center;verticalAlign=middle;resizable=0;points=[];fontSize=9;" parent="sWgnHZlghvhyXd7LkZwI-11" vertex="1" connectable="0">
          <mxGeometry x="-0.207" y="-1" relative="1" as="geometry">
            <mxPoint as="offset" />
          </mxGeometry>
        </mxCell>
        <mxCell id="sWgnHZlghvhyXd7LkZwI-13" value="" style="endArrow=block;html=1;rounded=0;entryX=0.75;entryY=1;entryDx=0;entryDy=0;exitX=0.5;exitY=0;exitDx=0;exitDy=0;endFill=0;dashed=1;dashPattern=1 1;" parent="1" source="sWgnHZlghvhyXd7LkZwI-5" target="sWgnHZlghvhyXd7LkZwI-1" edge="1">
          <mxGeometry width="50" height="50" relative="1" as="geometry">
            <mxPoint x="360" y="260" as="sourcePoint" />
            <mxPoint x="360" y="229" as="targetPoint" />
            <Array as="points">
              <mxPoint x="625" y="240" />
              <mxPoint x="395" y="240" />
            </Array>
          </mxGeometry>
        </mxCell>
        <mxCell id="sWgnHZlghvhyXd7LkZwI-14" value="implements" style="edgeLabel;html=1;align=center;verticalAlign=middle;resizable=0;points=[];fontSize=9;" parent="sWgnHZlghvhyXd7LkZwI-13" vertex="1" connectable="0">
          <mxGeometry x="-0.207" y="-1" relative="1" as="geometry">
            <mxPoint as="offset" />
          </mxGeometry>
        </mxCell>
        <mxCell id="sWgnHZlghvhyXd7LkZwI-16" value="&lt;p style=&quot;margin: 4px 0px 0px; text-align: center; line-height: 80%;&quot;&gt;&lt;b style=&quot;background-color: initial;&quot;&gt;DepartmentDao&lt;/b&gt;&lt;br&gt;&lt;/p&gt;&lt;hr size=&quot;1&quot;&gt;&lt;div style=&quot;height:2px;&quot;&gt;&amp;nbsp;+ finAll(): List&amp;lt;DepartmentDto&amp;gt;&lt;/div&gt;" style="verticalAlign=top;align=left;overflow=fill;fontSize=12;fontFamily=Helvetica;html=1;whiteSpace=wrap;" parent="1" vertex="1">
          <mxGeometry x="30" y="310" width="180" height="45" as="geometry" />
        </mxCell>
        <mxCell id="sWgnHZlghvhyXd7LkZwI-17" style="edgeStyle=orthogonalEdgeStyle;rounded=0;orthogonalLoop=1;jettySize=auto;html=1;entryX=0.5;entryY=0;entryDx=0;entryDy=0;dashed=1;dashPattern=1 1;endArrow=open;endFill=0;exitX=0.5;exitY=1;exitDx=0;exitDy=0;" parent="1" source="sWgnHZlghvhyXd7LkZwI-3" target="sWgnHZlghvhyXd7LkZwI-16" edge="1">
          <mxGeometry relative="1" as="geometry">
            <mxPoint x="150" y="300" as="sourcePoint" />
            <mxPoint x="210" y="300" as="targetPoint" />
          </mxGeometry>
        </mxCell>
        <mxCell id="sWgnHZlghvhyXd7LkZwI-19" value="&lt;p style=&quot;margin: 4px 0px 0px; text-align: center; line-height: 80%;&quot;&gt;&lt;b&gt;DepartmentTCPConnectorService&lt;/b&gt;&lt;br&gt;&lt;/p&gt;&lt;hr size=&quot;1&quot;&gt;&lt;div style=&quot;height:2px;&quot;&gt;&amp;nbsp;+ finAll(): Collection&amp;lt;DepartmentDto&amp;gt;&lt;/div&gt;" style="verticalAlign=top;align=left;overflow=fill;fontSize=12;fontFamily=Helvetica;html=1;whiteSpace=wrap;" parent="1" vertex="1">
          <mxGeometry x="245" y="310" width="210" height="45" as="geometry" />
        </mxCell>
        <mxCell id="sWgnHZlghvhyXd7LkZwI-20" style="edgeStyle=orthogonalEdgeStyle;rounded=0;orthogonalLoop=1;jettySize=auto;html=1;entryX=0.5;entryY=0;entryDx=0;entryDy=0;dashed=1;dashPattern=1 1;endArrow=open;endFill=0;exitX=0.5;exitY=1;exitDx=0;exitDy=0;" parent="1" source="sWgnHZlghvhyXd7LkZwI-4" target="sWgnHZlghvhyXd7LkZwI-19" edge="1">
          <mxGeometry relative="1" as="geometry">
            <mxPoint x="330" y="290" as="sourcePoint" />
            <mxPoint x="330" y="320" as="targetPoint" />
          </mxGeometry>
        </mxCell>
        <mxCell id="sWgnHZlghvhyXd7LkZwI-21" value="&lt;p style=&quot;margin: 4px 0px 0px; text-align: center; line-height: 80%;&quot;&gt;&lt;b&gt;DepartmentRemoteObjectImpl&lt;/b&gt;&lt;br&gt;&lt;/p&gt;&lt;hr size=&quot;1&quot;&gt;&lt;div style=&quot;height:2px;&quot;&gt;&amp;nbsp;+ finAll(): List&amp;lt;String&amp;gt;&lt;/div&gt;" style="verticalAlign=top;align=left;overflow=fill;fontSize=12;fontFamily=Helvetica;html=1;whiteSpace=wrap;" parent="1" vertex="1">
          <mxGeometry x="532.5" y="513" width="185" height="45" as="geometry" />
        </mxCell>
        <mxCell id="sWgnHZlghvhyXd7LkZwI-22" value="&lt;p style=&quot;margin: 4px 0px 0px; text-align: center; line-height: 80%;&quot;&gt;&lt;b&gt;DepartmentRMIConnectorService&lt;/b&gt;&lt;br&gt;&lt;/p&gt;&lt;hr size=&quot;1&quot;&gt;&lt;div style=&quot;height:2px;&quot;&gt;&amp;nbsp;+ getRemoteObject(): DepartmentRemoteObject&lt;/div&gt;" style="verticalAlign=top;align=left;overflow=fill;fontSize=12;fontFamily=Helvetica;html=1;whiteSpace=wrap;" parent="1" vertex="1">
          <mxGeometry x="490" y="310" width="270" height="45" as="geometry" />
        </mxCell>
        <mxCell id="sWgnHZlghvhyXd7LkZwI-23" style="edgeStyle=orthogonalEdgeStyle;rounded=0;orthogonalLoop=1;jettySize=auto;html=1;entryX=0.5;entryY=0;entryDx=0;entryDy=0;dashed=1;dashPattern=1 1;endArrow=open;endFill=0;exitX=0.5;exitY=1;exitDx=0;exitDy=0;" parent="1" source="sWgnHZlghvhyXd7LkZwI-5" target="sWgnHZlghvhyXd7LkZwI-22" edge="1">
          <mxGeometry relative="1" as="geometry">
            <mxPoint x="530" y="260" as="sourcePoint" />
            <mxPoint x="530" y="290" as="targetPoint" />
            <Array as="points">
              <mxPoint x="625" y="290" />
              <mxPoint x="625" y="290" />
            </Array>
          </mxGeometry>
        </mxCell>
        <mxCell id="sWgnHZlghvhyXd7LkZwI-32" value="" style="image;sketch=0;aspect=fixed;html=1;points=[];align=center;fontSize=12;image=img/lib/mscae/SQL_Database_generic.svg;" parent="1" vertex="1">
          <mxGeometry x="12" y="295" width="32.6" height="42.89" as="geometry" />
        </mxCell>
        <mxCell id="sWgnHZlghvhyXd7LkZwI-34" value="&lt;p style=&quot;margin: 4px 0px 0px; text-align: center; line-height: 80%;&quot;&gt;&lt;b style=&quot;background-color: initial;&quot;&gt;DepartmentTCPServer&lt;/b&gt;&lt;br&gt;&lt;/p&gt;&lt;hr size=&quot;1&quot;&gt;&lt;div style=&quot;height:2px;&quot;&gt;&amp;nbsp;+ main()&lt;br&gt;&amp;nbsp;+ run(): void&amp;nbsp;&lt;br&gt;&amp;nbsp;- findAll(): void&lt;/div&gt;" style="verticalAlign=top;align=left;overflow=fill;fontSize=12;fontFamily=Helvetica;html=1;whiteSpace=wrap;" parent="1" vertex="1">
          <mxGeometry x="260" y="440" width="150" height="73" as="geometry" />
        </mxCell>
        <mxCell id="sWgnHZlghvhyXd7LkZwI-35" style="edgeStyle=orthogonalEdgeStyle;rounded=0;orthogonalLoop=1;jettySize=auto;html=1;entryX=0.915;entryY=1.002;entryDx=0;entryDy=0;dashed=1;dashPattern=1 1;endArrow=open;endFill=0;exitX=0;exitY=0.5;exitDx=0;exitDy=0;entryPerimeter=0;" parent="1" source="sWgnHZlghvhyXd7LkZwI-34" target="sWgnHZlghvhyXd7LkZwI-16" edge="1">
          <mxGeometry relative="1" as="geometry">
            <mxPoint x="230" y="400" as="sourcePoint" />
            <mxPoint x="130" y="320" as="targetPoint" />
          </mxGeometry>
        </mxCell>
        <mxCell id="sWgnHZlghvhyXd7LkZwI-37" value="&lt;font style=&quot;font-size: 9px;&quot;&gt;IP: localhost&lt;br&gt;Port: 5000&lt;/font&gt;" style="shape=image;html=1;verticalAlign=top;verticalLabelPosition=bottom;labelBackgroundColor=#ffffff;imageAspect=0;aspect=fixed;image=https://cdn2.iconfinder.com/data/icons/whcompare-servers-web-hosting/50/dedicated-ip-address-128.png;align=center;" parent="1" vertex="1">
          <mxGeometry x="403" y="412" width="38" height="38" as="geometry" />
        </mxCell>
        <mxCell id="sWgnHZlghvhyXd7LkZwI-41" value="&lt;p style=&quot;margin: 4px 0px 0px; text-align: center; line-height: 80%;&quot;&gt;&lt;b style=&quot;background-color: initial;&quot;&gt;DepartmentRMIServer&lt;/b&gt;&lt;br&gt;&lt;/p&gt;&lt;hr size=&quot;1&quot;&gt;&lt;div style=&quot;height:2px;&quot;&gt;&amp;nbsp;+ main: void&lt;/div&gt;" style="verticalAlign=top;align=left;overflow=fill;fontSize=12;fontFamily=Helvetica;html=1;whiteSpace=wrap;" parent="1" vertex="1">
          <mxGeometry x="550" y="440" width="150" height="45" as="geometry" />
        </mxCell>
        <mxCell id="sWgnHZlghvhyXd7LkZwI-42" style="edgeStyle=orthogonalEdgeStyle;rounded=0;orthogonalLoop=1;jettySize=auto;html=1;entryX=0.5;entryY=0;entryDx=0;entryDy=0;dashed=1;dashPattern=1 1;endArrow=open;endFill=0;exitX=0.5;exitY=1;exitDx=0;exitDy=0;" parent="1" source="sWgnHZlghvhyXd7LkZwI-41" target="sWgnHZlghvhyXd7LkZwI-21" edge="1">
          <mxGeometry relative="1" as="geometry">
            <mxPoint x="520" y="513" as="sourcePoint" />
            <mxPoint x="520" y="543" as="targetPoint" />
            <Array as="points">
              <mxPoint x="625" y="500" />
              <mxPoint x="625" y="500" />
            </Array>
          </mxGeometry>
        </mxCell>
        <mxCell id="sWgnHZlghvhyXd7LkZwI-43" style="edgeStyle=orthogonalEdgeStyle;rounded=0;orthogonalLoop=1;jettySize=auto;html=1;entryX=0.75;entryY=1;entryDx=0;entryDy=0;dashed=1;dashPattern=1 1;endArrow=open;endFill=0;exitX=0;exitY=0.5;exitDx=0;exitDy=0;" parent="1" source="sWgnHZlghvhyXd7LkZwI-21" target="sWgnHZlghvhyXd7LkZwI-16" edge="1">
          <mxGeometry relative="1" as="geometry">
            <mxPoint x="270" y="487" as="sourcePoint" />
            <mxPoint x="205" y="365" as="targetPoint" />
          </mxGeometry>
        </mxCell>
        <mxCell id="sWgnHZlghvhyXd7LkZwI-44" value="&lt;font style=&quot;font-size: 9px;&quot;&gt;IP: localhost&lt;br&gt;Port: 5000&lt;/font&gt;" style="shape=image;html=1;verticalAlign=top;verticalLabelPosition=bottom;labelBackgroundColor=#ffffff;imageAspect=0;aspect=fixed;image=https://cdn2.iconfinder.com/data/icons/whcompare-servers-web-hosting/50/dedicated-ip-address-128.png;align=center;" parent="1" vertex="1">
          <mxGeometry x="689" y="408" width="38" height="38" as="geometry" />
        </mxCell>
        <mxCell id="sWgnHZlghvhyXd7LkZwI-45" value="" style="shape=flexArrow;endArrow=classic;startArrow=classic;html=1;rounded=0;fillColor=#dae8fc;strokeColor=#6c8ebf;" parent="1" edge="1">
          <mxGeometry width="100" height="100" relative="1" as="geometry">
            <mxPoint x="340" y="430" as="sourcePoint" />
            <mxPoint x="340" y="369" as="targetPoint" />
          </mxGeometry>
        </mxCell>
        <mxCell id="sWgnHZlghvhyXd7LkZwI-47" value="" style="shape=flexArrow;endArrow=classic;startArrow=classic;html=1;rounded=0;fillColor=#dae8fc;strokeColor=#6c8ebf;" parent="1" edge="1">
          <mxGeometry width="100" height="100" relative="1" as="geometry">
            <mxPoint x="640" y="431" as="sourcePoint" />
            <mxPoint x="640" y="370" as="targetPoint" />
          </mxGeometry>
        </mxCell>
      </root>
    </mxGraphModel>
  </diagram>
  <diagram id="QInko_f6tazDZWg4CS19" name="tcp socket">
    <mxGraphModel dx="2368" dy="1260" grid="1" gridSize="10" guides="1" tooltips="1" connect="1" arrows="1" fold="1" page="1" pageScale="1" pageWidth="850" pageHeight="1100" math="0" shadow="0">
      <root>
        <mxCell id="0" />
        <mxCell id="1" parent="0" />
        <mxCell id="y9LgZG2Y2OfHuf4wV2Cz-1" value="" style="shape=image;verticalLabelPosition=bottom;labelBackgroundColor=default;verticalAlign=top;aspect=fixed;imageAspect=0;image=https://www.researchgate.net/publication/233997612/figure/fig1/AS:300116503220224@1448564758412/Communication-with-sockets-using-TCP-IP-protocol.png;" parent="1" vertex="1">
          <mxGeometry x="10" y="10" width="370" height="306" as="geometry" />
        </mxCell>
        <mxCell id="D8_JRpOEt9iA1Zam1uD6-1" value="" style="shape=image;verticalLabelPosition=bottom;labelBackgroundColor=default;verticalAlign=top;aspect=fixed;imageAspect=0;image=https://i.ytimg.com/vi/QLvDf3o7BpE/maxresdefault.jpg;clipPath=inset(19.82% 0% 1.48% 4%);" parent="1" vertex="1">
          <mxGeometry x="10" y="510" width="671.28" height="310" as="geometry" />
        </mxCell>
        <mxCell id="D8_JRpOEt9iA1Zam1uD6-2" value="" style="shape=image;verticalLabelPosition=bottom;labelBackgroundColor=default;verticalAlign=top;aspect=fixed;imageAspect=0;image=https://examradar.com/wp-content/uploads/2019/02/Socket.png;" parent="1" vertex="1">
          <mxGeometry x="820" y="50" width="676" height="256" as="geometry" />
        </mxCell>
        <mxCell id="D8_JRpOEt9iA1Zam1uD6-3" value="" style="shape=image;verticalLabelPosition=bottom;labelBackgroundColor=default;verticalAlign=top;aspect=fixed;imageAspect=0;image=https://study-ccna.com/wp-content/uploads/2016/03/how_ports_work.jpg;clipPath=inset(4.58% 5.67% 2.88% 4.33%);" parent="1" vertex="1">
          <mxGeometry x="860" y="370" width="638.901098901099" height="646" as="geometry" />
        </mxCell>
        <mxCell id="D8_JRpOEt9iA1Zam1uD6-6" value="" style="shape=image;verticalLabelPosition=bottom;labelBackgroundColor=default;verticalAlign=top;aspect=fixed;imageAspect=0;image=https://i2.wp.com/ipwithease.com/wp-content/uploads/2020/06/port-vs-socket-dp.jpg;" parent="1" vertex="1">
          <mxGeometry x="1590" y="60" width="616.2" height="350" as="geometry" />
        </mxCell>
      </root>
    </mxGraphModel>
  </diagram>
</mxfile>
